<?xml version="1.0" encoding="iso-8859-1"?>
<!-- Generator: Adobe Illustrator 19.0.0, SVG Export Plug-In . SVG Version: 6.00 Build 0)  -->
<svg version="1.1" id="Layer_1" xmlns="http://www.w3.org/2000/svg" xmlns:xlink="http://www.w3.org/1999/xlink" x="0px" y="0px"
	 viewBox="0 0 511.999 511.999" style="enable-background:new 0 0 511.999 511.999;" xml:space="preserve">
<g>
	<g>
		<path d="M507.408,145.509l-73.855-17.919l-16.404-11.476l8.541-12.21c4.603-6.58,3-15.647-3.58-20.25l-27.314-19.108
			c-6.58-4.603-15.647-3-20.25,3.58l-8.541,12.21l-7.72-5.4c-6.928-4.847-16.473-3.159-21.32,3.769l-45.227,64.653
			c-4.847,6.928-3.159,16.474,3.769,21.32l7.72,5.4l-26.752,38.243l38.085,54.444l39.81-56.91l16.404,11.476l42.155,63.234
			c1.614,2.422,4.736,3.341,7.402,2.173c11.908-5.219,43.951-21.367,65.302-51.889c21.351-30.522,25.533-66.16,26.353-79.135
			C512.171,148.805,510.242,146.196,507.408,145.509z"/>
	</g>
</g>
<g>
	<g>
		<path d="M197.44,321.307l-60.711,86.788c-4.603,6.58-3,15.647,3.58,20.25l27.314,19.107c6.58,4.603,15.647,3,20.25-3.58
			l47.652-68.12L197.44,321.307z"/>
	</g>
</g>
<g>
	<g>
		<path d="M375.27,408.096L208.773,170.082l7.72-5.4c6.928-4.847,8.616-14.392,3.769-21.32l-45.227-64.654
			c-4.847-6.928-14.392-8.616-21.32-3.769l-7.72,5.4l-8.541-12.21c-4.603-6.579-13.668-8.184-20.25-3.58L89.89,83.655
			c-6.58,4.603-8.183,13.669-3.58,20.25l8.541,12.21L78.447,127.59l-14.122,3.426L4.591,145.509
			c-2.829,0.687-4.763,3.303-4.579,6.208c0.819,12.976,5.002,48.613,26.353,79.135c21.351,30.522,53.394,46.67,65.302,51.889
			c2.671,1.171,5.784,0.254,7.402-2.173l34.095-51.144l8.06-12.091l16.404-11.476l166.498,238.015
			c4.603,6.58,13.668,8.183,20.25,3.58l27.314-19.106C378.27,423.743,379.873,414.676,375.27,408.096z"/>
	</g>
</g>
<g>
</g>
<g>
</g>
<g>
</g>
<g>
</g>
<g>
</g>
<g>
</g>
<g>
</g>
<g>
</g>
<g>
</g>
<g>
</g>
<g>
</g>
<g>
</g>
<g>
</g>
<g>
</g>
<g>
</g>
</svg>