<svg  viewBox="0 0 444 444.9527" width="444pt" xmlns="http://www.w3.org/2000/svg"><path d="m292.691406 197.996094-45.257812-45.257813-244.613282 244.617188c-3.125 3.121093-3.125 8.1875 0 11.3125l33.941407 33.941406c3.125 3.125 8.1875 3.125 11.3125 0zm0 0"/><path d="m400.171875 90.507812c3.121094-3.125 3.121094-8.1875 0-11.3125l-33.9375-33.9375c-1.5-1.5-3.535156-2.34375-5.660156-2.34375-2.121094 0-4.160157.84375-5.660157 2.34375l-5.65625 5.65625 9.695313 9.703126 35.5625 35.554687zm0 0"/><path d="m196.523438 79.199219 79.195312-79.199219 169.707031 169.703125-79.195312 79.195313zm0 0"/></svg>